<svg xmlns="http://www.w3.org/2000/svg" width="256" height="256" fill="none" viewBox="0 0 256 256">
<!-- SVG created with Arrow, by QuiverAI (https://quiver.ai) -->
  <path d="m255 1-217.9 209.4-34.43 43.21 77.88-59.15c-4.12-3.8-3.64-9.23-0.21-12.31l137.9-138.6-29.28 42.39-38.89 39.71 39.35-31.73c0.7-0.57 1.28 0.45 1.57 0.99 7.73 14.17 9.84 29.31 7.66 44.42-2.56 17.42-11.25 38.19-29.44 52.29-18.86 14.61-41.92 15.63-57.97 11.77-4.55-1.12-8.76-2.42-12.48-4.52-7.74 5.57-10.87 8.96-23.36 12.93 15.37 11.19 32.3 16.68 52.79 16.68 51.97 0 95.59-46.24 94.87-99.68-0.09-6.49-0.7-12.27-1.77-19.44-5.54-38.15 3.63-70.18 33.73-108.3z" fill="#FC6E05"/>
  <path d="m42.71 200.3 65.25-64.31-31.95 27.11c-5.24 4.49-12.95 2.65-15.09-4.37-3.05-8.79-4.69-15.14-4.69-27.01 0-39.13 29.98-76.3 69.84-76.3 16.02 0 27.96 3.93 39.2 11.76l17.44-16.77c0.7-0.69 0.2-1.28-0.47-1.73-15.95-11.35-32.21-16.63-55.13-16.63-25.13 0-46.33 9.39-61.05 22.95l-0.08 0.02-0.03 0.07c-5.87 5.46-11.12 11.19-15.8 18.49-6.03 9.37-9.92 18.14-13.23 29.71-2.19 8.8-4.21 17.67-4.21 28.27 0 6.92 1.79 18.27 3.56 25.27 1.86 6.69 6.52 15.11 7.45 20.84 1.79 9.55 1.5 14.37-1.01 22.63z" fill="#0036DA"/>
  <path d="m255.4 1h-254.7v254h254.7v-254z" stroke="#fff" stroke-miterlimit="10" stroke-width=".3"/>
</svg>